<svg id="kvg-03042" class="kanjivg" width="100%" max-height="100%" viewBox="0 0 110 110" xmlns="http://www.w3.org/2000/svg" xmlns:xlink="http://www.w3.org/1999/xlink" xml:space="preserve" version="1.1" baseProfile="full"><defs><style type="text/css"><![CDATA[path.black{fill:none;stroke:black;stroke-width:3;stroke-linecap:round;stroke-linejoin:round;}path.grey{fill:none;stroke:#ddd;stroke-width:3;stroke-linecap:round;stroke-linejoin:round;}path.stroke{fill:none;stroke:black;stroke-width:3;stroke-linecap:round;stroke-linejoin:round;}rect{fill:none;stroke:#555;stroke-width:2;} text{font-size:16px;font-family:Segoe UI Symbol,Cambria Math,DejaVu Sans,Symbola,Quivira,STIX,Code2000;-webkit-touch-callout:none;cursor:pointer;-webkit-user-select:none;-khtml-user-select:none;-moz-user-select:none;-ms-user-select:none;user-select: none;}text:hover{color:#777;}#reset{font-weight:bold;}]]></style><marker id="markerStart" markerWidth="8" markerHeight="8" style="overflow:visible;"><circle cx="0" cy="0" r="1.5" style="stroke:none;fill:red;fill-opacity:0.5;"/></marker><marker id="markerEnd" style="overflow:visible;"><circle cx="0" cy="0" r="0.8" style="stroke:none;fill:blue;fill-opacity:0.5;"><animate attributeName="opacity" from="1" to="0" dur="3s" repeatCount="indefinite" /></circle></marker></defs><path d="M31.01,33c0.88,0.88,2.75,1.82,5.25,1.75c8.62-0.25,20-2.12,29.5-4.25c1.51-0.34,4.62-0.88,6.62-0.5" class="grey" /><path d="M49.76,17.62c0.88,1,1.82,3.26,1.38,5.25c-3.75,16.75-6.25,38.13-5.13,53.63c0.41,5.7,1.88,10.88,3.38,13.62" class="grey" /><path d="M65.63,44.12c0.75,1.12,1.16,4.39,0.5,6.12c-4.62,12.26-11.24,23.76-25.37,35.76c-6.86,5.83-15.88,3.75-16.25-8.38c-0.34-10.87,13.38-23.12,32.38-26.74c12.42-2.37,27,1.38,30.5,12.75c4.05,13.18-3.76,26.37-20.88,30.49" class="grey" /><path d="M31.01,33c0.88,0.88,2.75,1.82,5.25,1.75c8.62-0.25,20-2.12,29.5-4.25c1.51-0.34,4.62-0.88,6.62-0.5" class="stroke" stroke-dasharray="150"  style="stroke:#169C78"><animate attributeName="stroke-dashoffset" from="150" to="0" dur="1.8s" begin="0.0s" fill="freeze" /></path><path d="M49.76,17.62c0.88,1,1.82,3.26,1.38,5.25c-3.75,16.75-6.25,38.13-5.13,53.63c0.41,5.7,1.88,10.88,3.38,13.62" class="stroke" stroke-dasharray="150"  style="stroke:#EF5229"><set attributeName="opacity" to="0" dur="1.0s" /><animate attributeName="stroke-dashoffset" from="150" to="0" dur="1.8s" begin="1.0s" fill="freeze" /></path><path d="M65.63,44.12c0.75,1.12,1.16,4.39,0.5,6.12c-4.62,12.26-11.24,23.76-25.37,35.76c-6.86,5.83-15.88,3.75-16.25-8.38c-0.34-10.87,13.38-23.12,32.38-26.74c12.42-2.37,27,1.38,30.5,12.75c4.05,13.18-3.76,26.37-20.88,30.49" class="stroke" stroke-dasharray="250"  style="stroke:#EF5C6E"><set attributeName="opacity" to="0" dur="2.5s" /><animate attributeName="stroke-dashoffset" from="250" to="0" dur="1.8s" begin="2.5s" fill="freeze" /></path><script type="text/javascript"><![CDATA[function RecurringTimer(e,t){var n,r,i=t;this.pause=function(){window.clearTimeout(n);i-=new Date-r};var s=function(){r=new Date;n=window.setTimeout(function(){i=t;s();e()},i)};this.clear=function(){window.clearTimeout(n);i=t;n=window.setTimeout(function(){i=t;s();e()},i)};this.resume=s;this.resume()}function invoketimer(){timer=new RecurringTimer(function(){svg.setCurrentTime(0)},5500.0)}const colors=["#8B0000","#228B22","#FFD700","#4B0082","#FF00FF","#000","#5F9EA0","#00FFFF","#008B8B","#B8860B","#F08080","#FF0000"];const paths=document.getElementsByClassName("stroke");const color_use=[];for(i=0;i<paths.length;i++){start=false;while(start==false){let color_index=Math.floor(Math.random()*colors.length);if(color_use.includes(color_index)==false){color_use.push(color_index);paths[i].style.stroke=colors[color_index];console.log(color_index);start=true;break;}}};var svg=document.getElementById("kanjivg");var pause=document.getElementById("pause");var reset=document.getElementById("reset");var timer;invoketimer();reset.onclick=function(){svg.setCurrentTime(0);timer.clear();svg.unpauseAnimations();pause.innerHTML = "◼";};pause.onclick=function(){if(svg.animationsPaused()){svg.unpauseAnimations();timer.resume();pause.innerHTML="◼"}else{svg.pauseAnimations();timer.pause();pause.innerHTML="▶"}}]]></script></svg>