<svg id="kvg-03073" class="kanjivg" width="100%" max-height="100%" viewBox="0 0 110 110" xmlns="http://www.w3.org/2000/svg" xmlns:xlink="http://www.w3.org/1999/xlink" xml:space="preserve" version="1.1" baseProfile="full"><defs><style type="text/css"><![CDATA[path.black{fill:none;stroke:black;stroke-width:3;stroke-linecap:round;stroke-linejoin:round;}path.grey{fill:none;stroke:#ddd;stroke-width:3;stroke-linecap:round;stroke-linejoin:round;}path.stroke{fill:none;stroke:black;stroke-width:3;stroke-linecap:round;stroke-linejoin:round;}rect{fill:none;stroke:#555;stroke-width:2;} text{font-size:16px;font-family:Segoe UI Symbol,Cambria Math,DejaVu Sans,Symbola,Quivira,STIX,Code2000;-webkit-touch-callout:none;cursor:pointer;-webkit-user-select:none;-khtml-user-select:none;-moz-user-select:none;-ms-user-select:none;user-select: none;}text:hover{color:#777;}#reset{font-weight:bold;}]]></style><marker id="markerStart" markerWidth="8" markerHeight="8" style="overflow:visible;"><circle cx="0" cy="0" r="1.5" style="stroke:none;fill:red;fill-opacity:0.5;"/></marker><marker id="markerEnd" style="overflow:visible;"><circle cx="0" cy="0" r="0.8" style="stroke:none;fill:blue;fill-opacity:0.5;"><animate attributeName="opacity" from="1" to="0" dur="3s" repeatCount="indefinite" /></circle></marker></defs><path d="M20,25.12c1.25,0.88,3.75,2.25,6.5,1.38c2.75-0.87,7.31-2.38,11.38-4.5c6-3.12,8.42-1.01,4.25,4c-27.13,32.62-23.76,58.5-1.52,62.88c18.07,3.56,37.63-16.38,35.63-56.51c-0.72-14.5-0.17-14.78,4.12-1.75c3.76,11.38,10.26,20.76,16.14,26.5" class="grey" /><path d="M86.5,13.5c2.75,1.75,6,5.38,7.75,8.5" class="grey" /><path d="M92.87,8.62c3.06,1.57,6.68,4.82,8.62,7.62" class="grey" /><path d="M20,25.12c1.25,0.88,3.75,2.25,6.5,1.38c2.75-0.87,7.31-2.38,11.38-4.5c6-3.12,8.42-1.01,4.25,4c-27.13,32.62-23.76,58.5-1.52,62.88c18.07,3.56,37.63-16.38,35.63-56.51c-0.72-14.5-0.17-14.78,4.12-1.75c3.76,11.38,10.26,20.76,16.14,26.5" class="stroke" stroke-dasharray="250"  style="stroke:#F05442"><animate attributeName="stroke-dashoffset" from="250" to="0" dur="1.8s" begin="0.0s" fill="freeze" /></path><path d="M86.5,13.5c2.75,1.75,6,5.38,7.75,8.5" class="stroke" stroke-dasharray="150"  style="stroke:#169C78"><set attributeName="opacity" to="0" dur="2.0s" /><animate attributeName="stroke-dashoffset" from="150" to="0" dur="1.8s" begin="2.0s" fill="freeze" /></path><path d="M92.87,8.62c3.06,1.57,6.68,4.82,8.62,7.62" class="stroke" stroke-dasharray="150"  style="stroke:#EF5229"><set attributeName="opacity" to="0" dur="2.5s" /><animate attributeName="stroke-dashoffset" from="150" to="0" dur="1.8s" begin="2.5s" fill="freeze" /></path><script type="text/javascript"><![CDATA[function RecurringTimer(e,t){var n,r,i=t;this.pause=function(){window.clearTimeout(n);i-=new Date-r};var s=function(){r=new Date;n=window.setTimeout(function(){i=t;s();e()},i)};this.clear=function(){window.clearTimeout(n);i=t;n=window.setTimeout(function(){i=t;s();e()},i)};this.resume=s;this.resume()}function invoketimer(){timer=new RecurringTimer(function(){svg.setCurrentTime(0)},4000.0)}const colors=["#8B0000","#228B22","#FFD700","#4B0082","#FF00FF","#000","#5F9EA0","#00FFFF","#008B8B","#B8860B","#F08080","#FF0000"];const paths=document.getElementsByClassName("stroke");const color_use=[];for(i=0;i<paths.length;i++){start=false;while(start==false){let color_index=Math.floor(Math.random()*colors.length);if(color_use.includes(color_index)==false){color_use.push(color_index);paths[i].style.stroke=colors[color_index];console.log(color_index);start=true;break;}}};var svg=document.getElementById("kanjivg");var pause=document.getElementById("pause");var reset=document.getElementById("reset");var timer;invoketimer();reset.onclick=function(){svg.setCurrentTime(0);timer.clear();svg.unpauseAnimations();pause.innerHTML = "◼";};pause.onclick=function(){if(svg.animationsPaused()){svg.unpauseAnimations();timer.resume();pause.innerHTML="◼"}else{svg.pauseAnimations();timer.pause();pause.innerHTML="▶"}}]]></script></svg>