<svg id="kvg-0308c" class="kanjivg" width="100%" max-height="100%" viewBox="0 0 110 110" xmlns="http://www.w3.org/2000/svg" xmlns:xlink="http://www.w3.org/1999/xlink" xml:space="preserve" version="1.1" baseProfile="full"><defs><style type="text/css"><![CDATA[path.black{fill:none;stroke:black;stroke-width:3;stroke-linecap:round;stroke-linejoin:round;}path.grey{fill:none;stroke:#ddd;stroke-width:3;stroke-linecap:round;stroke-linejoin:round;}path.stroke{fill:none;stroke:black;stroke-width:3;stroke-linecap:round;stroke-linejoin:round;}rect{fill:none;stroke:#555;stroke-width:2;} text{font-size:16px;font-family:Segoe UI Symbol,Cambria Math,DejaVu Sans,Symbola,Quivira,STIX,Code2000;-webkit-touch-callout:none;cursor:pointer;-webkit-user-select:none;-khtml-user-select:none;-moz-user-select:none;-ms-user-select:none;user-select: none;}text:hover{color:#777;}#reset{font-weight:bold;}]]></style><marker id="markerStart" markerWidth="8" markerHeight="8" style="overflow:visible;"><circle cx="0" cy="0" r="1.5" style="stroke:none;fill:red;fill-opacity:0.5;"/></marker><marker id="markerEnd" style="overflow:visible;"><circle cx="0" cy="0" r="0.8" style="stroke:none;fill:blue;fill-opacity:0.5;"><animate attributeName="opacity" from="1" to="0" dur="3s" repeatCount="indefinite" /></circle></marker></defs><path d="M34.48,13c1.5,1.38,2.83,3.74,2.5,6.38c-0.5,4-2.75,44.5-2.75,52.88c0,8.38,0.12,16.62,0.12,19.5" class="grey" /><path d="M16.98,40.75c2.12,1.38,3.74,1.46,7.5,0c4.5-1.75,6.55-2.66,13-5.5c4.25-1.88,4.4,0.24,2.5,3.5c-5.25,9-10.5,16.75-18.88,27.62c-7.55,9.81-6.93,12.85,3.25,3.12c14-13.38,20.34-19.76,33.88-32.5c6.38-6,19.39-12.09,18.14,0.88c-1.02,10.63-1.89,22.13-2.29,30.75c-1.02,21.71,11.53,18,20.15,8.63" class="grey" /><path d="M34.48,13c1.5,1.38,2.83,3.74,2.5,6.38c-0.5,4-2.75,44.5-2.75,52.88c0,8.38,0.12,16.62,0.12,19.5" class="stroke" stroke-dasharray="150"  style="stroke:#169C78"><animate attributeName="stroke-dashoffset" from="150" to="0" dur="1.8s" begin="0.0s" fill="freeze" /></path><path d="M16.98,40.75c2.12,1.38,3.74,1.46,7.5,0c4.5-1.75,6.55-2.66,13-5.5c4.25-1.88,4.4,0.24,2.5,3.5c-5.25,9-10.5,16.75-18.88,27.62c-7.55,9.81-6.93,12.85,3.25,3.12c14-13.38,20.34-19.76,33.88-32.5c6.38-6,19.39-12.09,18.14,0.88c-1.02,10.63-1.89,22.13-2.29,30.75c-1.02,21.71,11.53,18,20.15,8.63" class="stroke" stroke-dasharray="300"  style="stroke:#EF5229"><set attributeName="opacity" to="0" dur="1.0s" /><animate attributeName="stroke-dashoffset" from="300" to="0" dur="1.8s" begin="1.0s" fill="freeze" /></path><script type="text/javascript"><![CDATA[function RecurringTimer(e,t){var n,r,i=t;this.pause=function(){window.clearTimeout(n);i-=new Date-r};var s=function(){r=new Date;n=window.setTimeout(function(){i=t;s();e()},i)};this.clear=function(){window.clearTimeout(n);i=t;n=window.setTimeout(function(){i=t;s();e()},i)};this.resume=s;this.resume()}function invoketimer(){timer=new RecurringTimer(function(){svg.setCurrentTime(0)},4000.0)}const colors=["#8B0000","#228B22","#FFD700","#4B0082","#FF00FF","#000","#5F9EA0","#00FFFF","#008B8B","#B8860B","#F08080","#FF0000"];const paths=document.getElementsByClassName("stroke");const color_use=[];for(i=0;i<paths.length;i++){start=false;while(start==false){let color_index=Math.floor(Math.random()*colors.length);if(color_use.includes(color_index)==false){color_use.push(color_index);paths[i].style.stroke=colors[color_index];console.log(color_index);start=true;break;}}};var svg=document.getElementById("kanjivg");var pause=document.getElementById("pause");var reset=document.getElementById("reset");var timer;invoketimer();reset.onclick=function(){svg.setCurrentTime(0);timer.clear();svg.unpauseAnimations();pause.innerHTML = "◼";};pause.onclick=function(){if(svg.animationsPaused()){svg.unpauseAnimations();timer.resume();pause.innerHTML="◼"}else{svg.pauseAnimations();timer.pause();pause.innerHTML="▶"}}]]></script></svg>