<svg id="kvg-03087" class="kanjivg" width="100%" max-height="100%" viewBox="0 0 110 110" xmlns="http://www.w3.org/2000/svg" xmlns:xlink="http://www.w3.org/1999/xlink" xml:space="preserve" version="1.1" baseProfile="full"><defs><style type="text/css"><![CDATA[path.black{fill:none;stroke:black;stroke-width:3;stroke-linecap:round;stroke-linejoin:round;}path.grey{fill:none;stroke:#ddd;stroke-width:3;stroke-linecap:round;stroke-linejoin:round;}path.stroke{fill:none;stroke:black;stroke-width:3;stroke-linecap:round;stroke-linejoin:round;}rect{fill:none;stroke:#555;stroke-width:2;} text{font-size:16px;font-family:Segoe UI Symbol,Cambria Math,DejaVu Sans,Symbola,Quivira,STIX,Code2000;-webkit-touch-callout:none;cursor:pointer;-webkit-user-select:none;-khtml-user-select:none;-moz-user-select:none;-ms-user-select:none;user-select: none;}text:hover{color:#777;}#reset{font-weight:bold;}]]></style><marker id="markerStart" markerWidth="8" markerHeight="8" style="overflow:visible;"><circle cx="0" cy="0" r="1.5" style="stroke:none;fill:red;fill-opacity:0.5;"/></marker><marker id="markerEnd" style="overflow:visible;"><circle cx="0" cy="0" r="0.8" style="stroke:none;fill:blue;fill-opacity:0.5;"><animate attributeName="opacity" from="1" to="0" dur="3s" repeatCount="indefinite" /></circle></marker></defs><path d="M57.8,50.06c5.98-1.02,10.95-2.09,14.74-3.25c1.99-0.61,3.8-0.91,4.98-0.91" class="grey" /><path d="M54.91,33c1.79,1.69,2.38,3.28,2.29,5.16c-0.6,13.49-0.1,27.68,1.11,42.47c1.5,18.31-27.81,16.56-27.81,9.12c0-9.53,20.92-6.35,28.68-3.27c6.46,2.56,9.18,3.87,14.76,8.23" class="grey" /><path d="M57.8,50.06c5.98-1.02,10.95-2.09,14.74-3.25c1.99-0.61,3.8-0.91,4.98-0.91" class="stroke" stroke-dasharray="150"  style="stroke:#964F4D"><animate attributeName="stroke-dashoffset" from="150" to="0" dur="1.8s" begin="0.0s" fill="freeze" /></path><path d="M54.91,33c1.79,1.69,2.38,3.28,2.29,5.16c-0.6,13.49-0.1,27.68,1.11,42.47c1.5,18.31-27.81,16.56-27.81,9.12c0-9.53,20.92-6.35,28.68-3.27c6.46,2.56,9.18,3.87,14.76,8.23" class="stroke" stroke-dasharray="300"  style="stroke:#F89827"><set attributeName="opacity" to="0" dur="1.0s" /><animate attributeName="stroke-dashoffset" from="300" to="0" dur="1.8s" begin="1.0s" fill="freeze" /></path><script type="text/javascript"><![CDATA[function RecurringTimer(e,t){var n,r,i=t;this.pause=function(){window.clearTimeout(n);i-=new Date-r};var s=function(){r=new Date;n=window.setTimeout(function(){i=t;s();e()},i)};this.clear=function(){window.clearTimeout(n);i=t;n=window.setTimeout(function(){i=t;s();e()},i)};this.resume=s;this.resume()}function invoketimer(){timer=new RecurringTimer(function(){svg.setCurrentTime(0)},4000.0)}const colors=["#8B0000","#228B22","#FFD700","#4B0082","#FF00FF","#000","#5F9EA0","#00FFFF","#008B8B","#B8860B","#F08080","#FF0000"];const paths=document.getElementsByClassName("stroke");const color_use=[];for(i=0;i<paths.length;i++){start=false;while(start==false){let color_index=Math.floor(Math.random()*colors.length);if(color_use.includes(color_index)==false){color_use.push(color_index);paths[i].style.stroke=colors[color_index];console.log(color_index);start=true;break;}}};var svg=document.getElementById("kanjivg");var pause=document.getElementById("pause");var reset=document.getElementById("reset");var timer;invoketimer();reset.onclick=function(){svg.setCurrentTime(0);timer.clear();svg.unpauseAnimations();pause.innerHTML = "◼";};pause.onclick=function(){if(svg.animationsPaused()){svg.unpauseAnimations();timer.resume();pause.innerHTML="◼"}else{svg.pauseAnimations();timer.pause();pause.innerHTML="▶"}}]]></script></svg>