<svg id="kvg-03080" class="kanjivg" width="100%" max-height="100%" viewBox="0 0 110 110" xmlns="http://www.w3.org/2000/svg" xmlns:xlink="http://www.w3.org/1999/xlink" xml:space="preserve" version="1.1" baseProfile="full"><defs><style type="text/css"><![CDATA[path.black{fill:none;stroke:black;stroke-width:3;stroke-linecap:round;stroke-linejoin:round;}path.grey{fill:none;stroke:#ddd;stroke-width:3;stroke-linecap:round;stroke-linejoin:round;}path.stroke{fill:none;stroke:black;stroke-width:3;stroke-linecap:round;stroke-linejoin:round;}rect{fill:none;stroke:#555;stroke-width:2;} text{font-size:16px;font-family:Segoe UI Symbol,Cambria Math,DejaVu Sans,Symbola,Quivira,STIX,Code2000;-webkit-touch-callout:none;cursor:pointer;-webkit-user-select:none;-khtml-user-select:none;-moz-user-select:none;-ms-user-select:none;user-select: none;}text:hover{color:#777;}#reset{font-weight:bold;}]]></style><marker id="markerStart" markerWidth="8" markerHeight="8" style="overflow:visible;"><circle cx="0" cy="0" r="1.5" style="stroke:none;fill:red;fill-opacity:0.5;"/></marker><marker id="markerEnd" style="overflow:visible;"><circle cx="0" cy="0" r="0.8" style="stroke:none;fill:blue;fill-opacity:0.5;"><animate attributeName="opacity" from="1" to="0" dur="3s" repeatCount="indefinite" /></circle></marker></defs><path d="M19.59,31.65c2.1,1.55,4.24,1.66,6.81,1.21c8.17-1.41,15.33-2.98,23.19-4.96c2.76-0.69,5.44-1.27,7.05-1.27" class="grey" /><path d="M37.02,15.5c1.62,1.25,2.31,2.88,2.12,5.25c-0.88,11.12-1.5,20.75-4,34.88c-3.61,20.44-19.25,16.99-18.62,7.37c0.5-7.74,6.25-12.86,12.62-13.5c5-0.5,14.28,1.93,5.88,15c-12.62,19.62-11.42,24.51,5.11,25.54c10.98,0.68,19.26,0.72,28.49-0.92c14.15-2.5,7.4-2.63,7.4-11.13" class="grey" /><path d="M78.52,36.25c6.88,3.12,11.71,5.95,14.88,10.12c6.25,8.25-1.38,3.62-4.5,4.5" class="grey" /><path d="M19.59,31.65c2.1,1.55,4.24,1.66,6.81,1.21c8.17-1.41,15.33-2.98,23.19-4.96c2.76-0.69,5.44-1.27,7.05-1.27" class="stroke" stroke-dasharray="150"  style="stroke:#F0BF59"><animate attributeName="stroke-dashoffset" from="150" to="0" dur="1.8s" begin="0.0s" fill="freeze" /></path><path d="M37.02,15.5c1.62,1.25,2.31,2.88,2.12,5.25c-0.88,11.12-1.5,20.75-4,34.88c-3.61,20.44-19.25,16.99-18.62,7.37c0.5-7.74,6.25-12.86,12.62-13.5c5-0.5,14.28,1.93,5.88,15c-12.62,19.62-11.42,24.51,5.11,25.54c10.98,0.68,19.26,0.72,28.49-0.92c14.15-2.5,7.4-2.63,7.4-11.13" class="stroke" stroke-dasharray="300"  style="stroke:#41B6AB"><set attributeName="opacity" to="0" dur="1.5s" /><animate attributeName="stroke-dashoffset" from="300" to="0" dur="1.8s" begin="1.5s" fill="freeze" /></path><path d="M78.52,36.25c6.88,3.12,11.71,5.95,14.88,10.12c6.25,8.25-1.38,3.62-4.5,4.5" class="stroke" stroke-dasharray="150"  style="stroke:#F05442"><set attributeName="opacity" to="0" dur="3.5s" /><animate attributeName="stroke-dashoffset" from="150" to="0" dur="1.8s" begin="3.5s" fill="freeze" /></path><script type="text/javascript"><![CDATA[function RecurringTimer(e,t){var n,r,i=t;this.pause=function(){window.clearTimeout(n);i-=new Date-r};var s=function(){r=new Date;n=window.setTimeout(function(){i=t;s();e()},i)};this.clear=function(){window.clearTimeout(n);i=t;n=window.setTimeout(function(){i=t;s();e()},i)};this.resume=s;this.resume()}function invoketimer(){timer=new RecurringTimer(function(){svg.setCurrentTime(0)},5500.0)}const colors=["#8B0000","#228B22","#FFD700","#4B0082","#FF00FF","#000","#5F9EA0","#00FFFF","#008B8B","#B8860B","#F08080","#FF0000"];const paths=document.getElementsByClassName("stroke");const color_use=[];for(i=0;i<paths.length;i++){start=false;while(start==false){let color_index=Math.floor(Math.random()*colors.length);if(color_use.includes(color_index)==false){color_use.push(color_index);paths[i].style.stroke=colors[color_index];console.log(color_index);start=true;break;}}};var svg=document.getElementById("kanjivg");var pause=document.getElementById("pause");var reset=document.getElementById("reset");var timer;invoketimer();reset.onclick=function(){svg.setCurrentTime(0);timer.clear();svg.unpauseAnimations();pause.innerHTML = "◼";};pause.onclick=function(){if(svg.animationsPaused()){svg.unpauseAnimations();timer.resume();pause.innerHTML="◼"}else{svg.pauseAnimations();timer.pause();pause.innerHTML="▶"}}]]></script></svg>